<?xml version="1.0" encoding="iso-8859-1"?>
<!-- Generator: Adobe Illustrator 17.1.0, SVG Export Plug-In . SVG Version: 6.00 Build 0)  -->
<!DOCTYPE svg PUBLIC "-//W3C//DTD SVG 1.1//EN" "http://www.w3.org/Graphics/SVG/1.1/DTD/svg11.dtd">
<svg version="1.1" id="Capa_1" xmlns="http://www.w3.org/2000/svg" xmlns:xlink="http://www.w3.org/1999/xlink" x="0px" y="0px"
	 viewBox="0 0 211.107 211.107" style="enable-background:new 0 0 211.107 211.107;" xml:space="preserve">
<path d="M197.051,61.905h-51.7c2.009-1.739,3.769-3.683,5.161-5.866c4.772-7.488,5.526-15.397,2.069-21.7
	c-3.167-5.773-9.414-9.219-16.711-9.219c-4.466,0-9.196,1.305-13.678,3.774c-2.027,1.117-3.93,2.468-5.715,3.978
	c4.707-12.347,14.602-18.871,14.847-19.031c3.488-2.203,4.543-6.813,2.354-10.316c-2.195-3.512-6.822-4.58-10.335-2.385
	c-0.693,0.433-17.032,10.843-22.551,31.539c-0.927,3.475-1.693,6.894-2.328,10.163C94.586,37.34,89.72,32.145,83.82,28.894
	c-4.482-2.469-9.211-3.774-13.677-3.774c-7.298,0-13.545,3.446-16.711,9.219c-3.457,6.303-2.703,14.212,2.068,21.7
	c1.391,2.183,3.152,4.128,5.161,5.866H14.056c-4.142,0-7.5,3.358-7.5,7.5v28.467c0,4.142,3.358,7.5,7.5,7.5h5.299v98.234
	c0,4.142,3.358,7.5,7.5,7.5h157.397c4.142,0,7.5-3.358,7.5-7.5v-98.234h5.299c4.142,0,7.5-3.358,7.5-7.5V69.405
	C204.551,65.263,201.193,61.905,197.051,61.905z M129.431,42.032c2.868-1.581,5.084-1.912,6.438-1.912
	c1.737,0,3.068,0.536,3.56,1.433c0.539,0.983,0.452,3.255-1.567,6.424c-3.414,5.357-13.222,9.05-22.616,11.15
	C118.718,52.453,123.629,45.229,129.431,42.032z M66.583,41.553c0.492-0.897,1.823-1.433,3.56-1.433c1.354,0,3.57,0.332,6.438,1.912
	c5.802,3.197,10.713,10.421,14.185,17.095c-9.394-2.1-19.202-5.792-22.616-11.149C66.13,44.808,66.043,42.536,66.583,41.553z
	 M21.556,76.905h167.995v13.467H21.556V76.905z"/>
<g>
</g>
<g>
</g>
<g>
</g>
<g>
</g>
<g>
</g>
<g>
</g>
<g>
</g>
<g>
</g>
<g>
</g>
<g>
</g>
<g>
</g>
<g>
</g>
<g>
</g>
<g>
</g>
<g>
</g>
</svg>
